<?xml version="1.0" encoding="UTF-8"?>
<svg version="1.1" xmlns="http://www.w3.org/2000/svg" width="128" height="77">
<path d="M0 0 C2.64 0 5.28 0 8 0 C8.81977607 2.8314037 9.63094274 5.66482902 10.4375 8.5 C10.66759766 9.29148437 10.89769531 10.08296875 11.13476562 10.8984375 C12.56049993 15.9401646 13.47970426 20.78508177 14 26 C14.66 26 15.32 26 16 26 C16.12375 24.86433594 16.2475 23.72867187 16.375 22.55859375 C16.94830328 17.97923289 17.92116326 13.54592658 19 9.0625 C19.17789063 8.29615234 19.35578125 7.52980469 19.5390625 6.74023438 C20.87106199 1.12893801 20.87106199 1.12893801 22 0 C24.67058851 -0.14115161 27.32432238 -0.04247107 30 0 C30.26478149 1.08269165 30.26478149 1.08269165 30.53491211 2.18725586 C31.3321266 5.43824463 32.13473835 8.68787675 32.9375 11.9375 C33.35418945 13.64196289 33.35418945 13.64196289 33.77929688 15.38085938 C34.04677734 16.46044922 34.31425781 17.54003906 34.58984375 18.65234375 C34.95903931 20.15269165 34.95903931 20.15269165 35.33569336 21.68334961 C35.78094697 23.9425481 35.78094697 23.9425481 37 25 C37.176521 24.31373535 37.35304199 23.6274707 37.53491211 22.92041016 C38.33344535 19.82133442 39.13542849 16.72316179 39.9375 13.625 C40.21529297 12.54476563 40.49308594 11.46453125 40.77929688 10.3515625 C41.18051758 8.8046875 41.18051758 8.8046875 41.58984375 7.2265625 C41.83597412 6.27346191 42.08210449 5.32036133 42.33569336 4.33837891 C43 2 43 2 44 0 C46.64 0 49.28 0 52 0 C51.40758622 5.03126538 50.31586067 9.65258285 48.71484375 14.46484375 C48.49429825 15.14301651 48.27375275 15.82118927 48.04652405 16.51991272 C47.34890192 18.66091333 46.64335337 20.79920079 45.9375 22.9375 C45.45975751 24.39891573 44.98253893 25.86050284 44.50585938 27.32226562 C43.34328359 30.88351923 42.17359742 34.44236408 41 38 C38.03 38 35.06 38 32 38 C30.02 30.41 28.04 22.82 26 15 C24.16679723 20.49960832 22.57128607 25.42609569 21.375 31 C20.10619469 36.89380531 20.10619469 36.89380531 19 38 C16.32941149 38.14115161 13.67567762 38.04247107 11 38 C7.9983717 30.84204342 5.50141656 23.61330954 3.25 16.1875 C2.93417969 15.17751953 2.61835937 14.16753906 2.29296875 13.12695312 C1.99519531 12.15048828 1.69742188 11.17402344 1.390625 10.16796875 C1.12282227 9.29422607 0.85501953 8.4204834 0.57910156 7.52026367 C-0.01654548 4.92799366 -0.10580345 2.65013868 0 0 Z " fill="#242E3D" transform="translate(40,1)"/>
<path d="M0 0 C4.86065455 0.56056107 8.46326791 2.04421526 12.8125 4.25 C20.93833146 8.21190401 29.24939924 10.79684271 38 13 C38.92941406 13.23589844 39.85882813 13.47179688 40.81640625 13.71484375 C62.99828405 18.47058281 87.81917075 16.28223951 108.8671875 7.8515625 C111.36269499 6.85518771 113.33730158 6.8478458 116 7 C116 8.32 116 9.64 116 11 C103.54295071 22.1589199 84.22107806 26.10034357 68 27 C67.28457031 27.05285156 66.56914063 27.10570313 65.83203125 27.16015625 C43.40971206 28.04778679 21.35608634 19.76212959 3.99609375 5.9296875 C2.035472 4.03429192 1.02882922 2.50255755 0 0 Z " fill="#FF9900" transform="translate(0,50)"/>
<path d="M0 0 C3.64987947 2.49260061 5.17241427 4.5797428 6.5625 8.75 C6.69874874 10.39025225 6.78674653 12.03477359 6.84375 13.6796875 C6.89982422 15.12021484 6.89982422 15.12021484 6.95703125 16.58984375 C7.00923828 18.09224609 7.00923828 18.09224609 7.0625 19.625 C7.13172279 21.60169531 7.20452158 23.5782693 7.28125 25.5546875 C7.31154297 26.43108887 7.34183594 27.30749023 7.37304688 28.21044922 C7.56561922 30.79181205 8.0025329 33.22504715 8.5625 35.75 C7.2425 36.74 5.9225 37.73 4.5625 38.75 C2.09449953 37.59826645 0.51466435 36.70216435 -1.4375 34.75 C-2.200625 35.41 -2.96375 36.07 -3.75 36.75 C-8.26956393 39.76304262 -13.21718777 39.51394813 -18.4375 38.75 C-21.5949126 37.2035122 -22.83651224 36.12118566 -24.2421875 32.9140625 C-25.66390104 28.33298553 -25.63417941 25.14335881 -23.4375 20.75 C-20.57758532 17.07296684 -17.99544038 15.64530972 -13.4375 14.75 C-9.4118415 14.88899332 -5.43588378 15.27122913 -1.4375 15.75 C-1.71901087 14.43528432 -2.01303339 13.12324233 -2.3125 11.8125 C-2.47492187 11.08160156 -2.63734375 10.35070312 -2.8046875 9.59765625 C-3.26711523 7.54299706 -3.26711523 7.54299706 -5.4375 6.75 C-11.16577916 6.34593052 -16.77420904 6.92624859 -22.4375 7.75 C-22.4375 5.77 -22.4375 3.79 -22.4375 1.75 C-14.90896172 -1.30505901 -7.82718807 -2.84625021 0 0 Z M-15.4375 22.75 C-16.69406013 27.31482783 -16.69406013 27.31482783 -15.5 31.75 C-12.11100583 33.39314869 -8.89825286 32.89197881 -5.4375 31.75 C-2.81786865 29.64286554 -2.81786865 29.64286554 -1.4375 26.75 C-1.31220403 24.13525423 -1.31220403 24.13525423 -1.4375 21.75 C-3.01879029 21.52668801 -4.60271089 21.32195356 -6.1875 21.125 C-7.06921875 21.00898438 -7.9509375 20.89296875 -8.859375 20.7734375 C-11.72617209 20.74737571 -13.11335353 21.08689745 -15.4375 22.75 Z " fill="#242E3D" transform="translate(30.4375,1.25)"/>
<path d="M0 0 C0.78375 0.495 1.5675 0.99 2.375 1.5 C2.375 3.48 2.375 5.46 2.375 7.5 C1.68019531 7.33628906 0.98539063 7.17257812 0.26953125 7.00390625 C-2.8602816 6.45904004 -5.76298083 6.40261517 -8.9375 6.4375 C-10.00613281 6.44652344 -11.07476562 6.45554687 -12.17578125 6.46484375 C-12.98402344 6.47644531 -13.79226562 6.48804688 -14.625 6.5 C-14.625 8.48 -14.625 10.46 -14.625 12.5 C-13.97273438 12.68175781 -13.32046875 12.86351562 -12.6484375 13.05078125 C1.24021471 17.04530512 1.24021471 17.04530512 4.375 21.5 C5.58224888 25.29421075 5.44006467 27.27801467 4.3125 31.125 C1.50827182 36.00978456 -1.42157329 37.89513777 -6.8125 39.375 C-11.89055558 39.54149363 -16.73169984 38.88765228 -21.625 37.5 C-23.625 35.5 -23.625 35.5 -23.75 32.375 C-23.70875 31.42625 -23.6675 30.4775 -23.625 29.5 C-23.05652344 29.644375 -22.48804687 29.78875 -21.90234375 29.9375 C-17.08515876 31.09555449 -12.60331338 32.08568393 -7.625 31.5 C-5.12222089 29.83211068 -5.12222089 29.83211068 -3.625 27.5 C-3.625 26.51 -3.625 25.52 -3.625 24.5 C-4.27726562 24.31824219 -4.92953125 24.13648437 -5.6015625 23.94921875 C-19.75660368 19.87807859 -19.75660368 19.87807859 -22.625 15.5 C-24.15044248 8.74446903 -24.15044248 8.74446903 -22.4375 4.6875 C-16.63106778 -2.32026303 -8.23730424 -3.40853969 0 0 Z " fill="#242F3D" transform="translate(117.625,1.5)"/>
<path d="M0 0 C-0.19167238 8.18963798 -2.02979134 16.02979134 -8 22 C-8.99 22 -9.98 22 -11 22 C-10.2130541 16.17660034 -8.58411032 10.64769766 -7 5 C-12.94 5 -18.88 5 -25 5 C-25 4.01 -25 3.02 -25 2 C-17.27424045 -2.13238301 -8.19056304 -4.22738737 0 0 Z " fill="#FF9900" transform="translate(128,49)"/>
</svg>
