<?xml version="1.0" encoding="UTF-8"?>
<svg version="1.1" xmlns="http://www.w3.org/2000/svg" width="256" height="44">
<path d="M0 0 C1.0750177 -0.0127597 2.1500354 -0.02551941 3.25762939 -0.03866577 C4.41494568 -0.04089142 5.57226196 -0.04311707 6.76464844 -0.04541016 C7.96079773 -0.05206696 9.15694702 -0.05872375 10.38934326 -0.06558228 C12.92116763 -0.07570858 15.45301868 -0.0803993 17.98486328 -0.08007812 C21.84550416 -0.08444043 25.70499189 -0.12073282 29.56542969 -0.15869141 C32.02766537 -0.16456179 34.48990647 -0.1685297 36.95214844 -0.17041016 C38.1013678 -0.18478119 39.25058716 -0.19915222 40.43463135 -0.21395874 C48.1731752 -0.17017783 53.61996639 0.83528893 59.64746094 6.03662109 C60.31648438 6.87386719 60.31648438 6.87386719 60.99902344 7.72802734 C61.69125 8.56140625 61.69125 8.56140625 62.39746094 9.41162109 C66.12641297 15.12380558 66.23449036 20.66123811 65.62402344 27.29052734 C63.8263898 33.06187743 61.02258046 38.18623467 55.79542542 41.42274475 C49.36523574 44.51906615 43.7172452 44.86109222 36.65136719 44.78662109 C35.52888077 44.78807632 34.40639435 44.78953156 33.24989319 44.79103088 C30.88914378 44.78937888 28.52838282 44.7778966 26.16772461 44.75708008 C22.56870493 44.7280852 18.97115712 44.73649557 15.37207031 44.74951172 C13.06932883 44.74327448 10.76659196 44.73488366 8.46386719 44.72412109 C7.39595444 44.72705673 6.32804169 44.72999237 5.22776794 44.73301697 C-1.80477851 44.6448226 -8.03960104 44.12121529 -13.61816406 39.38818359 C-14.15699219 38.71658203 -14.69582031 38.04498047 -15.25097656 37.35302734 C-16.08242188 36.34949219 -16.08242188 36.34949219 -16.93066406 35.32568359 C-20.07123352 30.90342228 -20.67075613 27.90886106 -20.68847656 22.41552734 C-20.70523437 21.22185547 -20.72199219 20.02818359 -20.73925781 18.79833984 C-20.1368653 12.98168957 -17.87606299 9.25413134 -13.43847656 5.54052734 C-12.76945313 4.96818359 -12.10042969 4.39583984 -11.41113281 3.80615234 C-7.57216873 0.94719253 -4.8068331 0.03881689 0 0 Z M-3.18847656 10.79052734 C-3.58035156 11.61552734 -3.97222656 12.44052734 -4.37597656 13.29052734 C-1.90097656 13.78552734 -1.90097656 13.78552734 0.62402344 14.29052734 C0.72199219 14.93119141 0.81996094 15.57185547 0.92089844 16.23193359 C2.08592439 22.97100616 3.6593951 28.32589901 8.62402344 33.29052734 C8.62402344 32.30052734 8.62402344 31.31052734 8.62402344 30.29052734 C9.28402344 30.29052734 9.94402344 30.29052734 10.62402344 30.29052734 C10.95402344 31.28052734 11.28402344 32.27052734 11.62402344 33.29052734 C11.95402344 32.30052734 12.28402344 31.31052734 12.62402344 30.29052734 C13.38714844 30.80615234 14.15027344 31.32177734 14.93652344 31.85302734 C15.82339844 32.32740234 16.71027344 32.80177734 17.62402344 33.29052734 C18.61402344 32.96052734 19.60402344 32.63052734 20.62402344 32.29052734 C17.49516956 25.95259256 14.47487101 20.63373106 9.21777344 15.86083984 C7.62013982 14.28670084 6.61460186 12.78729638 5.49902344 10.85302734 C3.87403496 8.07080063 3.87403496 8.07080063 1.06152344 7.60302734 C-1.62354306 8.08849798 -1.62354306 8.08849798 -3.18847656 10.79052734 Z M41.63183594 10.51318359 C41.01050781 11.12033203 40.38917969 11.72748047 39.74902344 12.35302734 C37.15707845 14.82715665 34.56956549 17.14360273 31.74902344 19.35302734 C28.67367224 22.00516507 27.15420036 24.13747477 26.62402344 28.29052734 C27.38101708 31.21889106 27.38101708 31.21889106 29.62402344 33.29052734 C32.82844587 34.89270824 32.82844587 34.89270824 36.62402344 34.29052734 C38.91818893 32.52339987 40.75957644 30.58423101 42.69433594 28.43115234 C44.39246958 26.54739276 46.08151132 24.98816855 48.06152344 23.41552734 C50.66276863 21.54888693 50.66276863 21.54888693 51.62402344 19.29052734 C52.02673076 15.16216214 52.02673076 15.16216214 50.43652344 11.47802734 C47.42483195 9.50485016 44.82995386 8.5504171 41.63183594 10.51318359 Z " fill="#000000" transform="translate(20.3759765625,-0.29052734375)"/>
<path d="M0 0 C3.47304328 0.23282972 5.60898171 0.82205951 8 3.5 C8.625 5.625 8.625 5.625 9 7.5 C9.66 7.83 10.32 8.16 11 8.5 C11 5.86 11 3.22 11 0.5 C12.65 0.5 14.3 0.5 16 0.5 C16 6.77 16 13.04 16 19.5 C14.35 19.5 12.7 19.5 11 19.5 C10.34 17.85 9.68 16.2 9 14.5 C8.67 16.15 8.34 17.8 8 19.5 C-3.43715963 21.14339769 -3.43715963 21.14339769 -7 18.5 C-8.07143765 15.21425787 -8.33973524 13.36066261 -7.0625 10.125 C-6.711875 9.58875 -6.36125 9.0525 -6 8.5 C-6.66 7.51 -7.32 6.52 -8 5.5 C-5.78291914 1.80486523 -4.31108355 0.12868906 0 0 Z M0 4.5 C-0.99 5.49 -1.98 6.48 -3 7.5 C-1.02 7.5 0.96 7.5 3 7.5 C3 6.84 3 6.18 3 5.5 C2.01 5.17 1.02 4.84 0 4.5 Z M-3 13.5 C-2.67 14.16 -2.34 14.82 -2 15.5 C-0.35 15.17 1.3 14.84 3 14.5 C3 13.84 3 13.18 3 12.5 C3.66 12.17 4.32 11.84 5 11.5 C1.23312136 11.5 0.08809695 11.73537317 -3 13.5 Z " fill="#000000" transform="translate(222,15.5)"/>
<path d="M0 0 C1.18851563 0.00902344 2.37703125 0.01804687 3.6015625 0.02734375 C4.51679688 0.03894531 5.43203125 0.05054688 6.375 0.0625 C6.52075327 3.45787852 6.60921542 6.85244902 6.6875 10.25 C6.72939453 11.20970703 6.77128906 12.16941406 6.81445312 13.15820312 C6.9376939 20.28151968 6.9376939 20.28151968 4.109375 24.20703125 C0.0045997 26.99241449 -1.74916518 26.68165363 -6.625 26.0625 C-9.125 24.75 -9.125 24.75 -10.625 23.0625 C-10.625 20.0625 -10.625 20.0625 -8.625 18.0625 C-9.12 17.381875 -9.615 16.70125 -10.125 16 C-11.98371077 12.36002475 -12.05843264 10.10787127 -11.625 6.0625 C-8.72171352 -0.00800809 -6.465592 -0.06338816 0 0 Z M-6.625 7.0625 C-6.295 9.3725 -5.965 11.6825 -5.625 14.0625 C-3.77774948 14.75409401 -3.77774948 14.75409401 -1.625 15.0625 C-0.635 14.4025 0.355 13.7425 1.375 13.0625 C1.79651163 9.76065888 2.00348726 7.88226599 -0.0625 5.1875 C-2.97986274 3.08699883 -4.03015005 5.05358391 -6.625 7.0625 Z M-6.625 19.0625 C-6.295 19.7225 -5.965 20.3825 -5.625 21.0625 C-3.645 21.0625 -1.665 21.0625 0.375 21.0625 C0.375 20.4025 0.375 19.7425 0.375 19.0625 C-1.935 19.0625 -4.245 19.0625 -6.625 19.0625 Z " fill="#000000" transform="translate(166.625,15.9375)"/>
<path d="M0 0 C3.09851777 1.8074687 4.59108071 2.86760812 5.8125 6.25 C5.874375 6.8275 5.93625 7.405 6 8 C4.35 8.33 2.7 8.66 1 9 C0.34 8.01 -0.32 7.02 -1 6 C-3.97903963 4.84682337 -4.86559131 4.9551971 -8 6 C-9.44386172 9.57527663 -10.16558314 12.04789692 -9.5 15.875 C-8.10922235 18.33056427 -8.10922235 18.33056427 -4.875 18.8125 C-3.92625 18.874375 -2.9775 18.93625 -2 19 C-1.01 17.68 -0.02 16.36 1 15 C3.475 15.495 3.475 15.495 6 16 C4.375 21.75 4.375 21.75 1 24 C-3.6340126 25.23573669 -6.65688539 25.07714177 -11 23 C-13.96979267 20.65542684 -14.87510252 18.92016308 -15.3828125 15.1796875 C-15.56111079 10.34186069 -15.61282134 7.04179629 -13.125 2.8125 C-9.06037998 -0.65438179 -5.17733071 -0.652755 0 0 Z " fill="#000000" transform="translate(190,11)"/>
<path d="M0 0 C0.680625 -0.01675781 1.36125 -0.03351562 2.0625 -0.05078125 C4 0.3125 4 0.3125 5.73828125 1.3203125 C7.75119972 4.49860482 7.3112418 7.86706758 7.1875 11.5 C7.17396484 12.24958984 7.16042969 12.99917969 7.14648438 13.77148438 C7.11118539 15.61879767 7.05737917 17.46574066 7 19.3125 C4.87527424 19.36636629 2.75016348 19.40523071 0.625 19.4375 C-0.55835937 19.46070312 -1.74171875 19.48390625 -2.9609375 19.5078125 C-6 19.3125 -6 19.3125 -8 17.3125 C-8.25 13.8125 -8.25 13.8125 -8 10.3125 C-7.34 9.6525 -6.68 8.9925 -6 8.3125 C-6.66 7.9825 -7.32 7.6525 -8 7.3125 C-7.6875 4.9375 -7.6875 4.9375 -7 2.3125 C-4.03082597 0.33305064 -3.34297721 0.01899419 0 0 Z M-4 6.3125 C-4 6.9725 -4 7.6325 -4 8.3125 C-2.02 7.9825 -0.04 7.6525 2 7.3125 C1.67 6.3225 1.34 5.3325 1 4.3125 C-1.32357511 4.12759993 -1.32357511 4.12759993 -4 6.3125 Z M-2 12.3125 C-2.33 13.3025 -2.66 14.2925 -3 15.3125 C-1.35 14.9825 0.3 14.6525 2 14.3125 C2 13.6525 2 12.9925 2 12.3125 C0.68 12.3125 -0.64 12.3125 -2 12.3125 Z " fill="#000000" transform="translate(128,15.6875)"/>
<path d="M0 0 C12.625 -0.25 12.625 -0.25 16 2 C17.18681726 5.56045177 17.09689832 8.43808337 17.0625 12.1875 C17.05347656 13.45980469 17.04445312 14.73210938 17.03515625 16.04296875 C17.02355469 17.01878906 17.01195312 17.99460937 17 19 C15.35 19 13.7 19 12 19 C11.67 14.71 11.34 10.42 11 6 C9.35 5.67 7.7 5.34 6 5 C5.67 9.62 5.34 14.24 5 19 C3.35 19 1.7 19 0 19 C0 12.73 0 6.46 0 0 Z " fill="#000000" transform="translate(137,16)"/>
<path d="M0 0 C1.32 0 2.64 0 4 0 C4.33 2.31 4.66 4.62 5 7 C6.60875 6.9071875 6.60875 6.9071875 8.25 6.8125 C12 7 12 7 14.21875 8 C16.9482992 11.064757 16.42631626 14.30515163 16.25 18.1875 C16.23195312 18.93708984 16.21390625 19.68667969 16.1953125 20.45898438 C16.14824109 22.3065371 16.07649766 24.15343159 16 26 C14.68 26 13.36 26 12 26 C11.67 21.38 11.34 16.76 11 12 C9.35 12.33 7.7 12.66 6 13 C4.71553081 15.56893838 4.67022856 17.76576337 4.4375 20.625 C4.31181641 22.12933594 4.31181641 22.12933594 4.18359375 23.6640625 C4.12300781 24.43492188 4.06242188 25.20578125 4 26 C2.68 26 1.36 26 0 26 C0 17.42 0 8.84 0 0 Z " fill="#000000" transform="translate(197,9)"/>
<path d="M0 0 C12.3033675 -0.36544656 12.3033675 -0.36544656 14.90625 1 C16.67520732 4.23466482 16.30953066 7.60480506 16.1875 11.1875 C16.16719727 12.31188477 16.16719727 12.31188477 16.14648438 13.45898438 C16.11118539 15.30629767 16.05737917 17.15324066 16 19 C14.68 19 13.36 19 12 19 C11.67 14.38 11.34 9.76 11 5 C9.35 5.33 7.7 5.66 6 6 C5.67 10.29 5.34 14.58 5 19 C3.35 19 1.7 19 0 19 C0 12.73 0 6.46 0 0 Z " fill="#000000" transform="translate(240,16)"/>
<path d="M0 0 C2.1875 0.875 2.1875 0.875 3.1875 1.875 C3.60136733 5.59980595 3.67597952 7.25625927 1.3125 10.25 C-0.8125 11.875 -0.8125 11.875 -2.8125 11.875 C-3.10125 11.235625 -3.39 10.59625 -3.6875 9.9375 C-4.64073451 7.72293921 -4.64073451 7.72293921 -6.8125 6.875 C-5.8225 8.36 -5.8225 8.36 -4.8125 9.875 C-4.3125 12.75 -4.3125 12.75 -4.8125 15.875 C-7.5 18.8125 -7.5 18.8125 -10.8125 20.875 C-14.99854651 20.68895349 -14.99854651 20.68895349 -16.8125 18.875 C-17.22636733 15.15019405 -17.30097952 13.49374073 -14.9375 10.5 C-12.8125 8.875 -12.8125 8.875 -10.8125 8.875 C-10.52375 9.514375 -10.235 10.15375 -9.9375 10.8125 C-8.98426549 13.02706079 -8.98426549 13.02706079 -6.8125 13.875 C-7.4725 12.885 -8.1325 11.895 -8.8125 10.875 C-9.3125 8 -9.3125 8 -8.8125 4.875 C-4.18233189 -0.18588142 -4.18233189 -0.18588142 0 0 Z " fill="#000000" transform="translate(66.8125,11.125)"/>
<path d="M0 0 C1.32 0 2.64 0 4 0 C4 6.6 4 13.2 4 20 C8.29 20 12.58 20 17 20 C17 21.32 17 22.64 17 24 C11.39 24 5.78 24 0 24 C0 16.08 0 8.16 0 0 Z " fill="#000000" transform="translate(102,11)"/>
<path d="M0 0 C2.0625 0.4375 2.0625 0.4375 4 1 C3.67 2.65 3.34 4.3 3 6 C1.35 5.67 -0.3 5.34 -2 5 C-1.125 1.125 -1.125 1.125 0 0 Z " fill="#000000" transform="translate(234,8)"/>
</svg>
