<?xml version="1.0" encoding="UTF-8"?>
<svg version="1.1" xmlns="http://www.w3.org/2000/svg" width="128" height="79">
<path d="M0 0 C3.97884172 3.07673196 7.5752833 6.37050766 11.0390625 10.01171875 C15.15062646 14.22920122 18.85997821 15.88210802 24.7890625 16.63671875 C31.97715974 15.75396997 37.08101078 11.94271529 42.3515625 7.19921875 C42.02802482 14.64058537 38.76151743 20.83847966 33.45703125 26.06640625 C26.45718821 31.61657766 19.34074559 33.75731342 10.4765625 33.63671875 C9.68644775 33.62842041 8.89633301 33.62012207 8.08227539 33.61157227 C-4.46410514 33.24919865 -12.81126579 27.22185853 -21.3984375 18.44921875 C-26.00006733 13.76354088 -29.79417664 11.6527729 -36.38671875 11.140625 C-43.25647846 11.31859805 -48.53178567 16.09260728 -53.6484375 20.19921875 C-53.32451344 12.74896528 -50.04437954 6.60942946 -44.7890625 1.33203125 C-32.25794233 -8.74298937 -13.20046608 -8.97553814 0 0 Z " fill="#37BCF8" transform="translate(53.6484375,43.80078125)"/>
<path d="M0 0 C4.15799511 2.89928231 7.82570428 6.3083194 11.4375 9.84765625 C17.32668142 15.51961377 21.81342592 19.2995202 30.296875 19.6015625 C37.05727854 18.44297744 41.57410685 14.32433065 46.296875 9.6015625 C45.59601354 18.01190005 42.45869723 24.25478156 36.29296875 30.0625 C28.09261087 36.38528083 18.33119576 37.40430816 8.296875 36.6015625 C-1.82333777 34.83945486 -7.53691965 30.67530069 -14.703125 23.6015625 C-16.49446955 22.07636057 -18.3065887 20.57515236 -20.140625 19.1015625 C-20.94371094 18.451875 -21.74679688 17.8021875 -22.57421875 17.1328125 C-26.9108087 14.01365055 -31.55785873 13.98309978 -36.703125 14.6015625 C-41.72726524 16.4691217 -45.72467954 20.10829332 -49.703125 23.6015625 C-49.11982993 14.46327305 -44.82163258 8.07930693 -38.05859375 2.109375 C-27.90827448 -4.38817598 -10.86280546 -5.35436156 0 0 Z " fill="#37BDF8" transform="translate(81.703125,2.3984375)"/>
</svg>
